<svg width="103" height="52" viewBox="0 0 103 52" fill="none" xmlns="http://www.w3.org/2000/svg">
<path d="M4.2 43.15C3.6 43.15 3.3 42.85 3.3 42.25C3.3 41.6833 3.5 41.05 3.9 40.35C4.33333 39.6167 4.85 38.8833 5.45 38.15C6.05 37.3833 6.65 36.6833 7.25 36.05C7.88333 35.4167 8.4 34.9 8.8 34.5C8.33333 34.2667 7.75 34.0667 7.05 33.9C6.38333 33.7 5.7 33.4833 5 33.25C4.33333 32.9833 3.76667 32.65 3.3 32.25C2.86667 31.8167 2.65 31.25 2.65 30.55C2.65 29.8167 2.91667 28.9833 3.45 28.05C4.01667 27.1167 4.73333 26.2167 5.6 25.35C6.46667 24.45 7.35 23.7167 8.25 23.15C9.15 22.55 9.95 22.25 10.65 22.25C11.0833 22.25 11.5 22.3667 11.9 22.6C12.3333 22.8 12.55 23.15 12.55 23.65C12.55 23.7833 12.5167 23.9667 12.45 24.2C12.3833 24.4333 12.2667 24.55 12.1 24.55C11.8667 24.55 11.6667 24.4333 11.5 24.2C11.3667 23.9333 11.2 23.8 11 23.8C10.4333 23.8 9.75 24.0333 8.95 24.5C8.18333 24.9667 7.43333 25.5667 6.7 26.3C5.96667 27 5.35 27.7333 4.85 28.5C4.38333 29.2667 4.15 29.95 4.15 30.55C4.15 30.95 4.38333 31.3 4.85 31.6C5.31667 31.9 5.86667 32.15 6.5 32.35C7.16667 32.55 7.81667 32.75 8.45 32.95C9.08333 33.1167 9.55 33.3 9.85 33.5C10.0167 33.3333 10.3 33.0667 10.7 32.7C11.1 32.3333 11.55 31.9333 12.05 31.5C12.55 31.0667 13 30.7 13.4 30.4C13.8333 30.1 14.1333 29.95 14.3 29.95C14.4333 29.95 14.5 30.0167 14.5 30.15C14.5 30.3167 14.3333 30.6 14 31C13.7 31.3667 13.3167 31.7667 12.85 32.2C12.4167 32.6333 12 33.05 11.6 33.45C11.2 33.8167 10.9167 34.0833 10.75 34.25C11.05 34.75 11.2 35.2833 11.2 35.85C11.2 36.4167 10.95 37.1167 10.45 37.95C9.95 38.75 9.31667 39.55 8.55 40.35C7.81667 41.15 7.05 41.8167 6.25 42.35C5.45 42.8833 4.76667 43.15 4.2 43.15ZM6.1 40.6C6.4 40.6 6.75 40.4333 7.15 40.1C7.58333 39.7667 8 39.35 8.4 38.85C8.8 38.35 9.13333 37.8667 9.4 37.4C9.7 36.9 9.85 36.5 9.85 36.2C9.85 35.8667 9.78333 35.6167 9.65 35.45C9.45 35.65 9.13333 35.9667 8.7 36.4C8.3 36.8333 7.86667 37.3167 7.4 37.85C6.96667 38.35 6.58333 38.8333 6.25 39.3C5.95 39.7333 5.8 40.0667 5.8 40.3C5.8 40.5 5.9 40.6 6.1 40.6ZM19.1547 42.15C18.4214 42.15 17.838 41.9 17.4047 41.4C16.9714 40.8667 16.638 40.2167 16.4047 39.45C16.2047 38.65 16.0714 37.8667 16.0047 37.1C15.938 36.3 15.9047 35.65 15.9047 35.15C15.9047 33.35 15.9714 31.5333 16.1047 29.7C16.2714 27.8667 16.438 26.05 16.6047 24.25C16.038 24.4833 15.488 24.75 14.9547 25.05C14.4547 25.35 13.988 25.7333 13.5547 26.2C13.488 26.2667 13.4047 26.3333 13.3047 26.4C13.238 26.4667 13.138 26.5 13.0047 26.5C12.7714 26.5 12.538 26.3833 12.3047 26.15C12.1047 25.9167 12.0047 25.6833 12.0047 25.45C12.0047 25.15 12.2047 24.85 12.6047 24.55C13.0047 24.2167 13.488 23.9167 14.0547 23.65C14.6547 23.35 15.2047 23.1 15.7047 22.9C16.238 22.7 16.6047 22.5667 16.8047 22.5C16.838 22.2333 16.9047 21.7333 17.0047 21C17.138 20.2333 17.288 19.3833 17.4547 18.45C17.6214 17.4833 17.8047 16.5667 18.0047 15.7C18.238 14.8 18.4714 14.0667 18.7047 13.5C18.938 12.9 19.1714 12.6 19.4047 12.6C19.638 12.6 19.8714 12.6833 20.1047 12.85C20.338 13.0167 20.4547 13.2167 20.4547 13.45C20.4547 13.55 20.3714 13.9667 20.2047 14.7C20.038 15.4333 19.8214 16.3 19.5547 17.3C19.3214 18.2667 19.1047 19.1833 18.9047 20.05C18.738 20.9167 18.6214 21.5167 18.5547 21.85C20.0214 21.4167 21.4214 21.0667 22.7547 20.8C24.1214 20.5333 25.5547 20.4 27.0547 20.4C27.188 20.4 27.438 20.4 27.8047 20.4C28.1714 20.4 28.5214 20.4167 28.8547 20.45C29.2214 20.4833 29.4047 20.55 29.4047 20.65C29.0714 20.7833 28.7047 20.8833 28.3047 20.95C27.938 21.0167 27.5714 21.0667 27.2047 21.1C25.6047 21.2333 24.088 21.5333 22.6547 22C21.2547 22.4667 19.8214 22.9833 18.3547 23.55C18.1214 25.45 17.9214 27.3833 17.7547 29.35C17.588 31.2833 17.5047 33.2 17.5047 35.1C17.5047 35.4667 17.5214 35.9667 17.5547 36.6C17.588 37.2 17.6547 37.8167 17.7547 38.45C17.8547 39.05 18.0214 39.5667 18.2547 40C18.488 40.4333 18.8214 40.65 19.2547 40.65C19.8214 40.65 20.4047 40.3333 21.0047 39.7C21.6047 39.0333 22.2047 38.2333 22.8047 37.3C23.4047 36.3333 23.9547 35.3667 24.4547 34.4C24.9547 33.4333 25.388 32.6167 25.7547 31.95C26.1547 31.2833 26.4214 30.9333 26.5547 30.9V31.05C26.5547 31.55 26.388 32.25 26.0547 33.15C25.7214 34.05 25.2714 35.0167 24.7047 36.05C24.1714 37.05 23.5714 38.0167 22.9047 38.95C22.2714 39.8833 21.6214 40.65 20.9547 41.25C20.3214 41.85 19.7214 42.15 19.1547 42.15ZM27.6199 41.85C27.0866 41.85 26.6533 41.6333 26.3199 41.2C26.0199 40.7667 25.7866 40.2333 25.6199 39.6C25.4533 38.9333 25.3366 38.3 25.2699 37.7C25.2366 37.0667 25.2199 36.5667 25.2199 36.2C25.2199 35.8667 25.2199 35.5333 25.2199 35.2C25.2533 34.8667 25.2866 34.5333 25.3199 34.2C25.4533 33.1667 25.6366 32.15 25.8699 31.15C26.1033 30.1167 26.2866 29.0833 26.4199 28.05C26.4866 27.5167 26.5366 27 26.5699 26.5C26.6033 26 26.6366 25.4833 26.6699 24.95C26.7033 24.7833 26.7533 24.6333 26.8199 24.5C26.8866 24.3333 27.0199 24.25 27.2199 24.25C27.5866 24.25 27.8033 24.4167 27.8699 24.75C27.9699 25.05 28.0199 25.3333 28.0199 25.6C28.0199 26.8 27.9033 27.9833 27.6699 29.15C27.4366 30.3167 27.2033 31.4833 26.9699 32.65C26.7366 33.8167 26.6199 35 26.6199 36.2C26.6199 36.3333 26.6199 36.6333 26.6199 37.1C26.6533 37.5333 26.7033 38.0167 26.7699 38.55C26.8366 39.05 26.9366 39.4833 27.0699 39.85C27.2366 40.2167 27.4366 40.4 27.6699 40.4C27.9699 40.4 28.3533 40.05 28.8199 39.35C29.3199 38.65 29.8199 37.8167 30.3199 36.85C30.8533 35.85 31.3199 34.9333 31.7199 34.1C32.1533 33.2333 32.4366 32.65 32.5699 32.35C33.0366 31.3167 33.3366 30.3667 33.4699 29.5C33.6366 28.6333 33.7533 27.8333 33.8199 27.1C33.8866 26.3333 34.0533 25.5833 34.3199 24.85C34.4866 24.45 34.7366 24.25 35.0699 24.25C35.5699 24.25 35.8199 24.55 35.8199 25.15C35.8199 26.1833 35.7033 27.4333 35.4699 28.9C35.2366 30.3333 35.1199 31.75 35.1199 33.15V34.25C35.1199 34.4833 35.1199 34.85 35.1199 35.35C35.1199 35.8167 35.1533 36.3167 35.2199 36.85C35.3199 37.3833 35.4533 37.8333 35.6199 38.2C35.8199 38.5667 36.1033 38.75 36.4699 38.75C36.9033 38.75 37.3366 38.5 37.7699 38C38.2033 37.5 38.6033 36.9167 38.9699 36.25C39.3699 35.5833 39.7033 35 39.9699 34.5C40.2366 34 40.4366 33.75 40.5699 33.75C40.7699 33.75 40.8699 33.8833 40.8699 34.15C40.8699 34.45 40.7033 34.9333 40.3699 35.6C40.0699 36.2333 39.6699 36.9 39.1699 37.6C38.7033 38.3 38.2033 38.9 37.6699 39.4C37.1699 39.9 36.7366 40.15 36.3699 40.15C35.6033 40.15 35.0199 39.8333 34.6199 39.2C34.2533 38.5667 33.9866 37.7833 33.8199 36.85C33.6866 35.9167 33.6199 35.0167 33.6199 34.15C33.6199 33.25 33.6199 32.55 33.6199 32.05C33.4866 32.45 33.2699 33.05 32.9699 33.85C32.6699 34.6167 32.3199 35.4667 31.9199 36.4C31.5199 37.3 31.0866 38.1667 30.6199 39C30.1533 39.8333 29.6533 40.5167 29.1199 41.05C28.6199 41.5833 28.1199 41.85 27.6199 41.85ZM43.2148 44.55C42.8148 44.55 42.4982 44.1833 42.2648 43.45C42.0648 42.7167 41.8982 41.85 41.7648 40.85C41.6648 39.8167 41.5982 38.85 41.5648 37.95C41.5648 37.05 41.5648 36.4333 41.5648 36.1C41.5648 33.6667 41.7648 31.0667 42.1648 28.3C42.5982 25.5 43.2148 22.75 44.0148 20.05C44.8148 17.35 45.7648 14.9167 46.8648 12.75C47.0982 12.3167 47.4315 11.7167 47.8648 10.95C48.3315 10.1833 48.8482 9.5 49.4148 8.9C49.9815 8.26666 50.5315 7.95 51.0648 7.95C51.5315 7.95 51.8648 8.11666 52.0648 8.45C52.2982 8.75 52.4148 9.11666 52.4148 9.55C52.4148 10.15 52.1482 10.45 51.6148 10.45C51.3815 10.45 51.1315 10.4 50.8648 10.3C50.5982 10.4333 50.2815 10.7333 49.9148 11.2C49.5815 11.6333 49.2648 12.0833 48.9648 12.55C48.6648 13.0167 48.4315 13.4 48.2648 13.7C46.5982 16.9667 45.2982 20.4833 44.3648 24.25C43.4315 28.0167 42.9648 31.75 42.9648 35.45C42.9648 35.85 42.9648 36.2667 42.9648 36.7C42.9648 37.1 42.9815 37.5167 43.0148 37.95C43.1482 37.35 43.4148 36.5 43.8148 35.4C44.2482 34.2667 44.7648 33.0667 45.3648 31.8C45.9648 30.5 46.6148 29.2667 47.3148 28.1C48.0482 26.9333 48.7815 25.9833 49.5148 25.25C50.2815 24.4833 51.0148 24.1 51.7148 24.1C52.2815 24.1 52.6815 24.3 52.9148 24.7C53.1815 25.0667 53.3482 25.5167 53.4148 26.05C53.4815 26.5833 53.5148 27.05 53.5148 27.45C53.5148 28.1167 53.4148 29.0333 53.2148 30.2C53.0148 31.3667 52.7148 32.6167 52.3148 33.95C51.9482 35.25 51.4815 36.5 50.9148 37.7C50.3482 38.8667 49.6982 39.8333 48.9648 40.6C48.2315 41.3667 47.4315 41.75 46.5648 41.75C46.0315 41.75 45.5815 41.6 45.2148 41.3C44.8815 41 44.6148 40.6167 44.4148 40.15C44.2815 40.7833 44.1815 41.3333 44.1148 41.8C44.0815 42.2333 44.0648 42.7833 44.0648 43.45C44.0648 43.6833 43.9982 43.9167 43.8648 44.15C43.7315 44.4167 43.5148 44.55 43.2148 44.55ZM46.1148 40.5C46.8148 40.5 47.4648 40.15 48.0648 39.45C48.6982 38.7167 49.2482 37.8 49.7148 36.7C50.2148 35.6 50.6315 34.45 50.9648 33.25C51.2982 32.0167 51.5482 30.8833 51.7148 29.85C51.9148 28.7833 52.0148 27.9667 52.0148 27.4V27.2C52.0148 26.9 51.9815 26.6167 51.9148 26.35C51.8482 26.0833 51.6482 25.95 51.3148 25.95C50.8815 25.95 50.3982 26.2833 49.8648 26.95C49.3315 27.6167 48.7815 28.4667 48.2148 29.5C47.6482 30.5 47.1315 31.55 46.6648 32.65C46.1982 33.7167 45.8148 34.7167 45.5148 35.65C45.2148 36.55 45.0648 37.2 45.0648 37.6C45.0648 37.8333 45.0648 38.1833 45.0648 38.65C45.0982 39.1167 45.1815 39.55 45.3148 39.95C45.4815 40.3167 45.7482 40.5 46.1148 40.5ZM60.2563 42.35C59.2563 42.35 58.4729 42.0167 57.9063 41.35C57.3396 40.65 56.9396 39.8333 56.7063 38.9C56.4729 37.9333 56.3563 37.0667 56.3563 36.3C56.3563 35.7333 56.4396 34.85 56.6063 33.65C56.7729 32.4167 57.0229 31.0667 57.3563 29.6C57.7229 28.1333 58.1563 26.7167 58.6563 25.35C59.1563 23.9833 59.7396 22.8667 60.4063 22C61.0729 21.1 61.8063 20.65 62.6063 20.65C63.1729 20.65 63.5896 20.8667 63.8563 21.3C64.1229 21.7333 64.2896 22.2833 64.3563 22.95C64.4563 23.5833 64.5063 24.2167 64.5063 24.85C64.5063 25.45 64.5063 25.95 64.5063 26.35C64.5063 26.5167 64.3896 26.7 64.1563 26.9C63.9563 27.0667 63.7729 27.15 63.6063 27.15C63.2729 27.15 63.0563 27 62.9563 26.7C62.8563 26.4 62.8063 26.0667 62.8063 25.7C62.8063 25.3333 62.8229 25 62.8563 24.7C62.8896 24.3667 62.9063 24.1167 62.9063 23.95C62.9063 23.7833 62.8729 23.5167 62.8063 23.15C62.7396 22.75 62.6063 22.55 62.4063 22.55C61.8729 22.75 61.3729 23.2833 60.9063 24.15C60.4396 24.9833 60.0063 25.9833 59.6063 27.15C59.2396 28.3167 58.9229 29.5167 58.6563 30.75C58.4229 31.9833 58.2229 33.1167 58.0563 34.15C57.9229 35.15 57.8563 35.9 57.8563 36.4C57.8563 36.8667 57.9063 37.4667 58.0063 38.2C58.1396 38.9 58.3729 39.5333 58.7063 40.1C59.0729 40.6667 59.5729 40.95 60.2063 40.95C60.9063 40.95 61.6063 40.6333 62.3063 40C63.0063 39.3333 63.6729 38.5167 64.3063 37.55C64.9729 36.5833 65.5729 35.6167 66.1063 34.65C66.6396 33.65 67.0729 32.8333 67.4063 32.2C67.7729 31.5333 68.0229 31.2 68.1563 31.2C68.3229 31.2 68.4229 31.2833 68.4563 31.45C68.4896 31.6167 68.4896 31.75 68.4563 31.85L68.4063 32.05C68.2063 32.7833 67.8396 33.7167 67.3063 34.85C66.7729 35.9833 66.1229 37.1333 65.3563 38.3C64.5896 39.4333 63.7563 40.4 62.8563 41.2C61.9896 41.9667 61.1229 42.35 60.2563 42.35ZM69.8074 41.85C69.2741 41.85 68.8408 41.6333 68.5074 41.2C68.2074 40.7667 67.9741 40.2333 67.8074 39.6C67.6408 38.9333 67.5241 38.3 67.4574 37.7C67.4241 37.0667 67.4074 36.5667 67.4074 36.2C67.4074 35.8667 67.4074 35.5333 67.4074 35.2C67.4408 34.8667 67.4741 34.5333 67.5074 34.2C67.6408 33.1667 67.8241 32.15 68.0574 31.15C68.2908 30.1167 68.4741 29.0833 68.6074 28.05C68.6741 27.5167 68.7241 27 68.7574 26.5C68.7908 26 68.8241 25.4833 68.8574 24.95C68.8908 24.7833 68.9408 24.6333 69.0074 24.5C69.0741 24.3333 69.2074 24.25 69.4074 24.25C69.7741 24.25 69.9908 24.4167 70.0574 24.75C70.1574 25.05 70.2074 25.3333 70.2074 25.6C70.2074 26.8 70.0908 27.9833 69.8574 29.15C69.6241 30.3167 69.3908 31.4833 69.1574 32.65C68.9241 33.8167 68.8074 35 68.8074 36.2C68.8074 36.3333 68.8074 36.6333 68.8074 37.1C68.8408 37.5333 68.8908 38.0167 68.9574 38.55C69.0241 39.05 69.1241 39.4833 69.2574 39.85C69.4241 40.2167 69.6241 40.4 69.8574 40.4C70.1574 40.4 70.5408 40.05 71.0074 39.35C71.5074 38.65 72.0074 37.8167 72.5074 36.85C73.0408 35.85 73.5074 34.9333 73.9074 34.1C74.3408 33.2333 74.6241 32.65 74.7574 32.35C75.2241 31.3167 75.5241 30.3667 75.6574 29.5C75.8241 28.6333 75.9408 27.8333 76.0074 27.1C76.0741 26.3333 76.2408 25.5833 76.5074 24.85C76.6741 24.45 76.9241 24.25 77.2574 24.25C77.7574 24.25 78.0074 24.55 78.0074 25.15C78.0074 26.1833 77.8908 27.4333 77.6574 28.9C77.4241 30.3333 77.3074 31.75 77.3074 33.15V34.25C77.3074 34.4833 77.3074 34.85 77.3074 35.35C77.3074 35.8167 77.3408 36.3167 77.4074 36.85C77.5074 37.3833 77.6408 37.8333 77.8074 38.2C78.0074 38.5667 78.2908 38.75 78.6574 38.75C79.0908 38.75 79.5241 38.5 79.9574 38C80.3908 37.5 80.7908 36.9167 81.1574 36.25C81.5574 35.5833 81.8908 35 82.1574 34.5C82.4241 34 82.6241 33.75 82.7574 33.75C82.9574 33.75 83.0574 33.8833 83.0574 34.15C83.0574 34.45 82.8908 34.9333 82.5574 35.6C82.2574 36.2333 81.8574 36.9 81.3574 37.6C80.8908 38.3 80.3908 38.9 79.8574 39.4C79.3574 39.9 78.9241 40.15 78.5574 40.15C77.7908 40.15 77.2074 39.8333 76.8074 39.2C76.4408 38.5667 76.1741 37.7833 76.0074 36.85C75.8741 35.9167 75.8074 35.0167 75.8074 34.15C75.8074 33.25 75.8074 32.55 75.8074 32.05C75.6741 32.45 75.4574 33.05 75.1574 33.85C74.8574 34.6167 74.5074 35.4667 74.1074 36.4C73.7074 37.3 73.2741 38.1667 72.8074 39C72.3408 39.8333 71.8408 40.5167 71.3074 41.05C70.8074 41.5833 70.3074 41.85 69.8074 41.85ZM85.4023 44.55C85.0023 44.55 84.6857 44.1833 84.4523 43.45C84.2523 42.7167 84.0857 41.85 83.9523 40.85C83.8523 39.8167 83.7857 38.85 83.7523 37.95C83.7523 37.05 83.7523 36.4333 83.7523 36.1C83.7523 33.6667 83.9523 31.0667 84.3523 28.3C84.7857 25.5 85.4023 22.75 86.2023 20.05C87.0023 17.35 87.9523 14.9167 89.0523 12.75C89.2857 12.3167 89.619 11.7167 90.0523 10.95C90.519 10.1833 91.0357 9.5 91.6023 8.9C92.169 8.26666 92.719 7.95 93.2523 7.95C93.719 7.95 94.0523 8.11666 94.2523 8.45C94.4857 8.75 94.6023 9.11666 94.6023 9.55C94.6023 10.15 94.3357 10.45 93.8023 10.45C93.569 10.45 93.319 10.4 93.0523 10.3C92.7857 10.4333 92.469 10.7333 92.1023 11.2C91.769 11.6333 91.4523 12.0833 91.1523 12.55C90.8523 13.0167 90.619 13.4 90.4523 13.7C88.7857 16.9667 87.4857 20.4833 86.5523 24.25C85.619 28.0167 85.1523 31.75 85.1523 35.45C85.1523 35.85 85.1523 36.2667 85.1523 36.7C85.1523 37.1 85.169 37.5167 85.2023 37.95C85.3357 37.35 85.6023 36.5 86.0023 35.4C86.4357 34.2667 86.9523 33.0667 87.5523 31.8C88.1523 30.5 88.8023 29.2667 89.5023 28.1C90.2357 26.9333 90.969 25.9833 91.7023 25.25C92.469 24.4833 93.2023 24.1 93.9023 24.1C94.469 24.1 94.869 24.3 95.1023 24.7C95.369 25.0667 95.5357 25.5167 95.6023 26.05C95.669 26.5833 95.7023 27.05 95.7023 27.45C95.7023 28.1167 95.6023 29.0333 95.4023 30.2C95.2023 31.3667 94.9023 32.6167 94.5023 33.95C94.1357 35.25 93.669 36.5 93.1023 37.7C92.5357 38.8667 91.8857 39.8333 91.1523 40.6C90.419 41.3667 89.619 41.75 88.7523 41.75C88.219 41.75 87.769 41.6 87.4023 41.3C87.069 41 86.8023 40.6167 86.6023 40.15C86.469 40.7833 86.369 41.3333 86.3023 41.8C86.269 42.2333 86.2523 42.7833 86.2523 43.45C86.2523 43.6833 86.1857 43.9167 86.0523 44.15C85.919 44.4167 85.7023 44.55 85.4023 44.55ZM88.3023 40.5C89.0023 40.5 89.6523 40.15 90.2523 39.45C90.8857 38.7167 91.4357 37.8 91.9023 36.7C92.4023 35.6 92.819 34.45 93.1523 33.25C93.4857 32.0167 93.7357 30.8833 93.9023 29.85C94.1023 28.7833 94.2023 27.9667 94.2023 27.4V27.2C94.2023 26.9 94.169 26.6167 94.1023 26.35C94.0357 26.0833 93.8357 25.95 93.5023 25.95C93.069 25.95 92.5857 26.2833 92.0523 26.95C91.519 27.6167 90.969 28.4667 90.4023 29.5C89.8357 30.5 89.319 31.55 88.8523 32.65C88.3857 33.7167 88.0023 34.7167 87.7023 35.65C87.4023 36.55 87.2523 37.2 87.2523 37.6C87.2523 37.8333 87.2523 38.1833 87.2523 38.65C87.2857 39.1167 87.369 39.55 87.5023 39.95C87.669 40.3167 87.9357 40.5 88.3023 40.5Z" fill="white"/>
<path d="M23.0003 49.1302C120.432 51.5351 103.917 41.6871 96.6464 37.7114" stroke="white"/>
<path d="M19.1512 49.125C18.8665 49.1606 18.9107 49.3665 18.9107 49.606" stroke="white" stroke-width="3" stroke-linecap="round"/>
</svg>
